<svg width="28" height="24" fill="none" xmlns="http://www.w3.org/2000/svg"><path d="M12.1574 19.4286c-1.2462 0-2.25994 1.0252-2.25994 2.2854 0 1.2605 1.01374 2.286 2.25994 2.286 1.2461 0 2.26-1.0255 2.26-2.286 0-1.2602-1.0138-2.2854-2.26-2.2854zM21.1955 19.4286c-1.2462 0-2.26 1.0252-2.26 2.2854 0 1.2605 1.0138 2.286 2.26 2.286 1.2461 0 2.26-1.0255 2.26-2.286 0-1.2602-1.0138-2.2854-2.26-2.2854zM19.4093 13.6873c.034.0035.0678.0052.1012.0052.4925 0 .9151-.3706.9669-.8683l.4487-4.31845c.0552-.53174-.3334-1.00722-.868-1.06206-.5349-.05407-1.0129.33148-1.068.86309l-.4487 4.31842c-.0553.5316.3333 1.0071.8679 1.0621z" fill="#00893D"/><mask id="a" fill="#fff"><path fill-rule="evenodd" clip-rule="evenodd" d="M26.9731 3.8391c.3013 0 .5856.13883.7699.37587.1842.23703.2477.54554.172.83535L24.9032 16.5664c-.1116.4265-.4988.7242-.9419.7242H9.83402c-.44312 0-.83032-.2977-.94191-.7242L5.88821 5.07974c-.00558-.01897-.01064-.03819-.01505-.05755l-.80723-3.08671h-3.2363c-.53746 0-.973185-.43329-.973185-.967739C.856445.43329 1.29217 0 1.82963 0H5.8184c.44312 0 .83032.297677.94191.724129L7.5748 3.8391h19.3983zM10.5866 15.3549H23.209l2.5055-9.58063H8.0811l2.5055 9.58063z"/></mask><path fill-rule="evenodd" clip-rule="evenodd" d="M26.9731 3.8391c.3013 0 .5856.13883.7699.37587.1842.23703.2477.54554.172.83535L24.9032 16.5664c-.1116.4265-.4988.7242-.9419.7242H9.83402c-.44312 0-.83032-.2977-.94191-.7242L5.88821 5.07974c-.00558-.01897-.01064-.03819-.01505-.05755l-.80723-3.08671h-3.2363c-.53746 0-.973185-.43329-.973185-.967739C.856445.43329 1.29217 0 1.82963 0H5.8184c.44312 0 .83032.297677.94191.724129L7.5748 3.8391h19.3983zM10.5866 15.3549H23.209l2.5055-9.58063H8.0811l2.5055 9.58063z" fill="#00893D"/><path d="M27.743 4.21497l-.3948.30686.3948-.30686zm.172.83535l.4838.12651v-.00022l-.4838-.12629zM24.9032 16.5664l.4837.1266h.0001l-.4838-.1266zm-16.01109 0l-.48373.1265.00002.0001.48371-.1266zM5.88821 5.07974l.48373-.1265-.00192-.00733-.00213-.00727-.47968.1411zm-.01505-.05755l.48749-.11113-.00176-.00772-.002-.00765-.48373.1265zm-.80723-3.08671l.48373-.1265-.09767-.3735h-.38606v.5zM6.76031.724129l.48374-.126486-.00002-.000091-.48372.126577zM7.5748 3.8391l-.48373.12648.09766.37352h.38607v-.5zM23.209 15.3549v.5h.386l.0977-.3735-.4837-.1265zm-12.6224 0l-.4837.1265.0976.3735h.3861v-.5zm15.1279-9.58063l.4837.1265.1638-.6265h-.6475v.5zm-17.6334 0v-.5h-.64757l.16384.6265.48373-.1265zM28.1377 3.9081c-.2793-.35935-.7095-.569-1.1646-.569v1c.1476 0 .286.06802.3751.18273l.7895-.61373zm.2611 1.26851c.115-.44043.0184-.90897-.2611-1.26851l-.7895.61373c.0891.11453.1194.26301.0831.4022l.9675.25258zM25.387 16.693l3.0118-11.51617-.9675-.25302-3.0118 11.51609.9675.2531zm-1.4257 1.0976c.6688 0 1.2561-.4495 1.4256-1.0976l-.9674-.2531c-.0536.2048-.2408.3507-.4582.3507v1zm-14.12728 0H23.9613v-1H9.83402v1zM8.4084 16.693c.16958.6481.75681 1.0976 1.42562 1.0976v-1c-.21742 0-.4046-.1459-.4582-.3507l-.96742.2531zM5.40448 5.20624l3.0039 11.48666.96746-.253-3.0039-11.48666-.96746.253zm-.01882-.07292c.00687.03013.01459.05937.02287.08752l.95936-.2822c-.00288-.00978-.00528-.019-.00724-.02758l-.97499.22226zM4.5822 2.06199l.80722 3.0867.96747-.253-.80723-3.08671-.96746.25301zm-2.75257.37349h3.2363v-1h-3.2363v1zM.356445.967741c0 .813239.662235 1.467739 1.473185 1.467739v-1c-.26396 0-.47318-.21207-.47318-.467739H.356445zM1.82963-.5C1.01868-.5.356445.154507.356445.967741H1.35645C1.35645.712074 1.56567.5 1.82963.5v-1zm3.98877 0H1.82963v1H5.8184v-1zM7.24403.597552C7.07444-.0505222 6.48722-.5 5.8184-.5v1c.21743 0 .4046.145877.4582.350705l.96743-.253153zm.81451 3.115058L7.24405.597643l-.96747.252972.81449 3.114965.96747-.25297zM26.9731 3.3391H7.5748v1h19.3983v-1zM23.209 14.8549H10.5866v1H23.209v-1zm2.0217-9.20713l-2.5055 9.58063.9675.253 2.5055-9.58063-.9675-.253zm-17.1496.6265h17.6334v-1H8.0811v1zm2.9892 8.95413L8.56483 5.64777l-.96746.253 2.50553 9.58063.9674-.253z" fill="#00893D" mask="url(#a)"/></svg>