<svg width="21" height="13" fill="none" xmlns="http://www.w3.org/2000/svg"><path fill-rule="evenodd" clip-rule="evenodd" d="M.7457 5.2054c-.3205.4298-.5405.7686-.6577.9716-.1173.2033-.1173.4427 0 .646.1172.203.3372.5418.6577.9716a15.3069 15.3069 0 001.877 2.0882C4.7207 11.821 7.1879 13 10.006 13s5.2854-1.179 7.3832-3.1172a15.311 15.311 0 001.8771-2.0882c.3205-.4298.5405-.7686.6577-.9716.1174-.2033.1174-.4427 0-.646-.1172-.203-.3372-.5418-.6577-.9716a15.311 15.311 0 00-1.8771-2.0882C15.2914 1.179 12.8242 0 10.006 0S4.7206 1.179 2.6228 3.1172a15.3069 15.3069 0 00-1.877 2.0882zm3.0938 3.6895c-.6473-.598-1.2135-1.2412-1.6928-1.884a12.1061 12.1061 0 01-.3616-.511c.105-.157.2256-.3284.3617-.5109.4792-.6427 1.0454-1.286 1.6927-1.884 1.8108-1.673 3.8776-2.6606 6.1666-2.6606 2.2891 0 4.3558.9877 6.1666 2.6607.6473.598 1.2135 1.2412 1.6928 1.884.136.1824.2567.3537.3616.5109a12.0763 12.0763 0 01-.3616.511c-.4793.6427-1.0455 1.2859-1.6928 1.884-1.8108 1.6729-3.8775 2.6605-6.1666 2.6605-2.289 0-4.3558-.9876-6.1666-2.6606z" fill="#8F8F8F"/><path d="M10.0053 9.3889c-1.8421 0-3.3354-1.2934-3.3354-2.889 0-1.5954 1.4933-2.8888 3.3354-2.8888 1.842 0 3.3353 1.2934 3.3353 2.8889s-1.4933 2.8889-3.3353 2.8889z" fill="#8F8F8F"/></svg>