<svg width="209" height="24" fill="none" xmlns="http://www.w3.org/2000/svg"><path fill-rule="evenodd" clip-rule="evenodd" d="M107.556 14.0875c-.404 0-.785.1813-1.041.4927-.888 1.0133-1.985 1.5154-3.291 1.5154-.823 0-1.557-.1813-2.203-.5392-.646-.3626-1.1482-.8646-1.5107-1.5107-.3626-.6461-.5392-1.3805-.5392-2.2032 0-.8228.1813-1.5572.5392-2.2033.3625-.646.8647-1.148 1.5107-1.5107.646-.3625 1.38-.5391 2.203-.5391 1.065 0 1.994.3346 2.784 1.004.317.2742.544.4322.991.4322.748 0 1.352-.6042 1.352-1.3526 0-.395-.167-.7483-.437-.9993l-.004-.0047-.019-.0186c-.502-.4462-1.078-.8088-1.697-1.0737-.929-.4044-1.97-.609-3.123-.609-1.367 0-2.599.2929-3.6909.8832-1.0923.5903-1.9569 1.4038-2.5797 2.4496-.6275 1.0459-.939 2.2265-.939 3.542 0 1.3154.3115 2.496.939 3.5419.6275 1.0458 1.4874 1.8593 2.5797 2.4496 1.0919.5903 2.3199.8831 3.6719.8831 1.153 0 2.194-.2045 3.133-.6089.916-.3951 1.687-.9668 2.315-1.7152.246-.2417.404-.5856.404-.9575 0-.7437-.604-1.348-1.348-1.348zM91.7338 4.9771c.7345 0 1.3294.5996 1.3294 1.3293v11.0813c0 .7298-.5996 1.3294-1.3294 1.3294-.7297 0-1.3293-.5996-1.3293-1.3294v-.1115c-1.1621.9017-2.6216 1.4409-4.2113 1.4409-3.7929 0-6.87-3.0771-6.87-6.87 0-3.793 3.0771-6.87 6.87-6.87 1.585 0 3.0492.5392 4.2113 1.4409v-.1116c0-.7297.5996-1.3293 1.3293-1.3293zm-1.3293 7.1257v-.5067c-.1302-2.2125-1.9662-3.965-4.2113-3.965-2.3288 0-4.2159 1.8873-4.2159 4.216 0 2.3288 1.8871 4.2159 4.2159 4.2159 2.2451.0047 4.0811-1.7477 4.2113-3.9602zm53.5565-6.898c.697 0 1.269.5439 1.32 1.2271 1.167-.9063 2.631-1.4502 4.221-1.4502 3.793 0 6.87 3.0771 6.87 6.87 0 3.793-3.077 6.8701-6.87 6.8701-1.59 0-3.054-.5392-4.216-1.4456v4.2206c0 .7297-.595 1.3247-1.325 1.3247s-1.325-.595-1.325-1.3247V12.112c-.004-.0836-.004-.1719-.004-.2603 0-.0883 0-.1719.004-.2603V6.5249c0-.7251.595-1.32 1.325-1.32zm5.541 2.4264c-2.329 0-4.216 1.8872-4.216 4.2159 0 2.3288 1.887 4.2159 4.216 4.2159 2.328 0 4.216-1.8871 4.216-4.2159 0-2.324-1.888-4.216-4.216-4.216zm39.751 2.682c.693 0 1.255.5624 1.255 1.255 0 .6926-.562 1.255-1.255 1.255-.693 0-1.255-.5624-1.255-1.255.005-.6926.562-1.255 1.255-1.255zm15.906 3.2072v.7995l-.005.0465-.004.0233-.005.0232-.009.0465-.009.0418-.005.0233-.014.0418-.009.0186-.01.0232-.014.0372-.009.0233-.018.0371-.01.0186-.023.0372-.023.0326-.014.0185-.028.0326-.028.0325-.028.0326-.032.0279-.033.0278-.032.0279-.038.0233-.037.0232-.018.0093-.038.0186-.023.0093-.037.0186-.037.0139-.023.0093-.042.014-.024.0046-.041.0093-.024.0047-.041.0046-.024.0047-.041.0046h-.093l-.047-.0046-.023-.0047-.042-.0046-.023-.0047-.042-.0093-.042-.0139-.023-.0093-.037-.014-.024-.0093-.041-.0185-.038-.0186-.018-.0093-.033-.0233-.018-.0139-.019-.014-.019-.0139-.032-.0232-.033-.028-.032-.0278-.028-.0279-.028-.0326-.028-.0325-.023-.0325-.014-.0233-.023-.0372-.01-.0186-.018-.0371-.019-.0372-.014-.0372-.009-.0232-.014-.0419-.005-.0232-.009-.0419-.004-.0232-.005-.0232-.005-.0233-.004-.0232-.005-.0419v-.7948h-.999c-.498 0-1-.0744-1.455-.2789-.405-.1813-.744-.4509-.986-.8227-.241-.3765-.348-.8042-.348-1.2504 0-.4462.102-.8785.348-1.255.242-.3719.581-.6368.981-.8227.456-.2045.958-.2836 1.455-.2836h3.774c.498 0 1 .0744 1.455.2836.405.1813.739.4508.981.8227.246.3765.349.8088.349 1.255 0 .4462-.103.8739-.349 1.2504-.242.3718-.576.6414-.986.8227-.455.2045-.957.2789-1.454.2789h-.972v-.0047zm-10.319 0v.7531c0 .488-.4.8878-.888.8878s-.887-.3998-.887-.8878V9.6996c0-.488.399-.8878.887-.8878h1.887c.498 0 1 .0744 1.455.2836.405.1813.739.4508.981.8227.246.3765.349.8088.349 1.255 0 .4462-.103.8739-.349 1.2504-.242.3718-.576.6414-.985.8227-.456.2045-.958.2789-1.455.2789h-.995v-.0047zm10.319-3.184v1.6641h.92c.275 0 .6-.0418.814-.2231.186-.1534.251-.3672.251-.6043 0-.2417-.061-.4602-.251-.6136-.219-.1812-.544-.2231-.814-.2231h-.92zm-1.78 1.6641v-1.6641h-.92c-.275 0-.6.0419-.814.2231-.19.1581-.251.3766-.251.6136 0 .2371.065.4509.251.6043.219.1813.544.2231.814.2231h.92zm-8.539-1.6641v1.6641h.92c.275 0 .6-.0418.814-.2231.186-.1534.251-.3672.251-.6043 0-.2417-.061-.4602-.251-.6136-.219-.1812-.544-.2231-.814-.2231h-.92zm-10.57.9622c.53-.6414.851-1.4688.851-2.366 0-2.059-1.669-3.7278-3.728-3.7278H175.671c-.786 0-1.422.6275-1.436 1.413v10.6956c0 .6507.53 1.1806 1.18 1.1806h6.308c2.236 0 4.048-1.8128 4.048-4.0486-.004-1.2736-.585-2.4077-1.501-3.1468zm-6.958 4.9132v-3.3886h3.946c.934 0 1.697.7577 1.697 1.6966 0 .9343-.758 1.6966-1.697 1.6966H177.312v-.0046zm.562-8.5016h3.128c.721 0 1.302.5857 1.302 1.3062 0 .7204-.586 1.3014-1.302 1.3014H177.307V7.7102h.567zm-7.604 5.113H161.457c.46 1.6315 1.961 2.8354 3.737 2.8354 1.292 0 2.51-.4369 3.337-1.1992.577-.5299 1.474-.4881 2.004.0883s.488 1.4735-.089 2.0034c-1.348 1.2364-3.263 1.9429-5.257 1.9429-3.704 0-6.716-3.012-6.716-6.7166 0-3.7046 3.012-6.7167 6.716-6.7167 3.38 0 6.22 2.6635 6.582 6.0148.009.0697.014.1441.014.2185.005.8413-.679 1.5199-1.515 1.5292zm-1.316-2.51c-.604-1.4503-2.036-2.4682-3.704-2.4682-1.669 0-3.101 1.018-3.705 2.4682h7.409zm-1.585-6.0473c-.855 0-1.548-.6926-1.548-1.5479 0-.8552.693-1.5478 1.548-1.5478.856 0 1.548.6926 1.548 1.5478 0 .8553-.692 1.5479-1.548 1.5479zm-4.783 0c-.855 0-1.548-.6926-1.548-1.5479 0-.8552.693-1.5478 1.548-1.5478.856 0 1.548.6926 1.548 1.5478 0 .8553-.692 1.5479-1.548 1.5479zm-106.8617.7112c3.7929 0 6.87 3.077 6.87 6.87 0 3.7929-3.0771 6.87-6.87 6.87-3.793 0-6.8701-3.0771-6.8701-6.87-.0046-3.793 3.0725-6.87 6.8701-6.87zm0 2.654c-2.3288 0-4.216 1.8873-4.216 4.216 0 2.3288 1.8872 4.2159 4.216 4.2159 2.3287 0 4.2159-1.8871 4.2159-4.2159 0-2.324-1.8872-4.216-4.2159-4.216zm-20.6659-1.98c.0186.0185.0325.0371.0511.051l4.3042 4.4949 4.3786-4.5506c.2789-.2742.6601-.4462 1.0831-.4462.8506 0 1.5432.6926 1.5432 1.5432v10.1981c0 .846-.6926 1.5432-1.5432 1.5432-.8507 0-1.5432-.6926-1.5432-1.5432v-6.8003l-2.9145 3.0306a8.6126 8.6126 0 01-.0325.0326l-.0093.0093c-.2463.237-.5531.3625-.8692.3858H39.3115a1.3545 1.3545 0 01-.8692-.3858l-.0093-.0093-.0326-.0326-2.8911-3.0027v6.7724c0 .846-.6926 1.5432-1.5432 1.5432-.846 0-1.5432-.6926-1.5432-1.5432V6.7434c0-.8506.6925-1.5432 1.5432-1.5432.4322.0046.8134.172 1.0923.4508zm89.6916-.4463c.841 0 1.529.688 1.529 1.5293v2.8353h3.379c1.618 0 2.864.3626 3.733 1.0831.865.7205 1.301 1.7896 1.301 3.2073 0 1.506-.478 2.6541-1.431 3.4443-.958.7902-2.301 1.1853-4.035 1.1853h-4.471c-.842 0-1.53-.688-1.53-1.5293V6.7294c-.004-.8413.684-1.5246 1.525-1.5246zm1.525 6.6423v4.3647h2.77c.795 0 1.422-.1953 1.868-.5904.451-.3904.674-.9621.674-1.7059 0-1.3805-.845-2.0684-2.542-2.0684h-2.77zm12.034-6.6423c.841 0 1.529.688 1.529 1.5293v10.2307c0 .8413-.688 1.5292-1.529 1.5292-.842 0-1.529-.6879-1.529-1.5292V6.7341c.004-.846.692-1.5293 1.529-1.5293zm-22.762 0h4.518c.688 0 1.255.5625 1.255 1.255 0 .688-.563 1.2504-1.255 1.2504h-2.999v9.2639c0 .8366-.683 1.5199-1.519 1.5199-.837 0-1.52-.6833-1.52-1.5199V7.7102h-2.98c-.688 0-1.25-.5624-1.25-1.2504 0-.6879.562-1.255 1.25-1.255h4.5zm-48.9692 0c.846 0 1.5386.6926 1.5386 1.5386v3.6999h6.038v-3.7c0-.8459.6925-1.5385 1.5385-1.5385s1.5386.6926 1.5386 1.5386v10.2121c0 .8459-.6926 1.5385-1.5386 1.5385s-1.5385-.6926-1.5385-1.5385v-3.9092h-6.038v3.9092c0 .8459-.6926 1.5385-1.5386 1.5385s-1.5386-.6926-1.5386-1.5385V6.7434c0-.8506.6926-1.5386 1.5386-1.5386z" fill="#00893D"/><path fill-rule="evenodd" clip-rule="evenodd" d="M14.8405 23.5095c-3.6628.6507-7.228-.4556-9.8356-2.7146 2.8726 1.0133 6.0287 1.3387 9.2359.8134l.2511-.0418c.1905-.0325.3765-.0744.5624-.1162 4.7737-1.1342 7.9809-5.615 7.544-10.477.3533 3.1514-.1069 6.2332-1.2225 9.0175-1.6873 1.7802-3.937 3.0585-6.5353 3.5187z" fill="url(#paint0_linear)"/><path fill-rule="evenodd" clip-rule="evenodd" d="M14.7332 15.0729c-.0511-.0836-.1069-.1626-.158-.2463.0046 0 .0046-.0047.0093-.0047.0697.1162.1208.2046.1487.251z" fill="#FFF8B4"/><path fill-rule="evenodd" clip-rule="evenodd" d="M12.5013 5.6325c1.3015 4.2763 3.607 8.1111 6.6469 11.2347h-2.6588c-2.761-3.2212-4.8481-7.0374-6.0333-11.2347h2.0452z" fill="#FFD800"/><path fill-rule="evenodd" clip-rule="evenodd" d="M15.082 5.6325c-1.1807 4.1927-3.2584 8.0135-6.0148 11.2347H6.4131c3.026-3.1236 5.3268-6.963 6.619-11.2347h2.0499z" fill="#E5310E"/><path fill-rule="evenodd" clip-rule="evenodd" d="M19.3723 14.399c-1.9708 1.0412-4.2159 1.6361-6.6051 1.6361-2.3845 0-4.6343-.5903-6.605-1.6361V12.14c1.9103 1.2038 4.174 1.9011 6.605 1.9011 2.4264 0 4.69-.6973 6.6051-1.9011v2.259z" fill="#5CB136"/><path fill-rule="evenodd" clip-rule="evenodd" d="M4.2747 3.5873c.0325-.0326.065-.0698.0976-.1023-.0325.0372-.065.0697-.0976.1023zm.7298 17.2076c-1.9802-1.7152-3.4072-4.0951-3.8999-6.8747-.6833-3.8441.5717-7.5859 3.0632-10.2167l-.0093.0093C3.0429 6.4924 2.5827 9.574 2.936 12.7256c.0279.2835.0604.5671.1116.8506.9389 5.285 5.9171 8.8316 11.1928 8.0321l.251-.0418c-3.1979.6879-6.3587.3672-9.487-.7716z" fill="url(#paint1_linear)"/><path fill-rule="evenodd" clip-rule="evenodd" d="M10.6988.1848c3.6628-.6508 7.2279.4555 9.8356 2.7145-2.8726-1.0133-6.0287-1.3386-9.236-.8134l-.251.0418C5.9669 3.0295 2.4854 7.673 2.941 12.721c-.3533-3.1515.1069-6.2333 1.2224-9.0129C5.8461 1.9232 8.0958.645 10.6988.1848z" fill="url(#paint2_linear)"/><path fill-rule="evenodd" clip-rule="evenodd" d="M21.2587 20.1069c-.0325.0325-.065.0697-.0976.1023a2.1007 2.1007 0 01.0976-.1023zM20.529 2.8993c1.9801 1.7152 3.4071 4.095 3.8998 6.8746.6833 3.8441-.5717 7.5859-3.0632 10.2168l.0093-.0093c1.1156-2.7796 1.5758-5.8614 1.2225-9.0129a8.8772 8.8772 0 00-.1115-.8506c-.939-5.285-5.9172-8.8315-11.1929-8.032l-.251.0418c3.2026-.6926 6.3634-.3672 9.487.7716z" fill="url(#paint3_linear)"/><defs><linearGradient id="paint0_linear" x1="23.5133" y1="16.4394" x2="4.8002" y2="19.5674" gradientUnits="userSpaceOnUse"><stop stop-color="#FFE500"/><stop offset="1" stop-color="#F18500"/></linearGradient><linearGradient id="paint1_linear" x1="1.2562" y1="5.0264" x2="10.4167" y2="23.5771" gradientUnits="userSpaceOnUse"><stop stop-color="#FDC300"/><stop offset="1" stop-color="#D7030D"/></linearGradient><linearGradient id="paint2_linear" x1="1.9766" y1="7.312" x2="20.7222" y2="3.9827" gradientUnits="userSpaceOnUse"><stop stop-color="#FFED00"/><stop offset="1" stop-color="#9FC515"/></linearGradient><linearGradient id="paint3_linear" x1="16.8799" y1="1.0882" x2="20.2742" y2="20.3625" gradientUnits="userSpaceOnUse"><stop stop-color="#32A934"/><stop offset="1" stop-color="#C7D300"/></linearGradient></defs></svg>