<svg width="26" height="26" fill="none" xmlns="http://www.w3.org/2000/svg"><path fill="#D8D8D8" fill-opacity=".01" d="M.2744 0h24.8098v25.0435H.2744z"/><path fill-rule="evenodd" clip-rule="evenodd" d="M5.3255 16.5286c3.1162 3.1456 8.2069 3.1456 11.3232 0 3.1155-3.1449 3.1155-8.2479.0039-11.4257-3.1202-3.1497-8.2109-3.1497-11.3271-.004-3.1163 3.1455-3.1163 8.2841 0 11.4297zm9.9569-10.0494c2.3619 2.4123 2.3619 6.2859 0 8.6701-2.3613 2.3834-6.2279 2.3834-8.5892 0-2.3612-2.3835-2.3612-6.2866 0-8.67 2.3613-2.3836 6.2279-2.3836 8.5892 0z" fill="#4A4A4A"/><path d="M16.6487 16.5286l-.1421-.1407.1421.1407zm-11.3232 0l.142-.1407-.142.1407zM16.6526 5.1029l.1429-.14-.0008-.0008-.1421.1408zm-11.3271-.004l-.1421-.1408.142.1407zm9.9569 10.0504l-.1421-.1408.1421.1408zm0-8.67l.1429-.14-.0008-.0008-.1421.1407zm-8.5892 8.67l-.142.1407.142-.1407zm0-8.67l-.142-.1408.142.1407zm9.8134 9.9086c-3.038 3.0666-8.001 3.0666-11.039 0l-.2842.2815c3.1945 3.2245 8.4128 3.2245 11.6073 0l-.2841-.2815zm.0031-11.1451c3.0359 3.1005 3.0348 8.0785-.0031 11.1451l.2841.2815c3.1932-3.2233 3.1922-8.4513.0048-11.7065l-.2858.2799zM5.4676 5.2396c3.0379-3.0665 8.0009-3.0667 11.043.004l.2841-.2815c-3.1984-3.2285-8.4167-3.2287-11.6113-.004l.2842.2815zm0 11.1483c-3.039-3.0677-3.039-8.0807 0-11.1483l-.2842-.2815c-3.1935 3.2235-3.1935 8.4877 0 11.7113l.2842-.2815zm9.9569-1.0979c2.4396-2.4626 2.4384-6.4612.0008-8.9507l-.2858.2798c2.2862 2.335 2.2851 6.0836.0008 8.3894l.2842.2815zm-8.8733 0c2.4395 2.4625 6.4338 2.4625 8.8733 0l-.2842-.2815c-2.283 2.3045-6.022 2.3045-8.305 0l-.2841.2815zm0-8.9515c-2.4385 2.4614-2.4385 6.4901 0 8.9515l.2841-.2815c-2.284-2.3056-2.284-6.083 0-8.3885l-.2841-.2815zm8.8733 0c-2.4395-2.4625-6.4338-2.4625-8.8733 0l.2841.2815c2.283-2.3045 6.022-2.3045 8.305 0l.2842-.2815z" fill="#4A4A4A"/><path d="M15.3778 16.6269l5.5097 5.5616a.9601.9601 0 001.367 0c.3775-.381.3775-.9988 0-1.3798l-5.5097-5.5616a.9601.9601 0 00-1.367 0c-.3774.381-.3774.9988 0 1.3798z" fill="#4A4A4A" stroke="#4A4A4A" stroke-width=".4"/></svg>