<svg width="30" height="28" fill="none" xmlns="http://www.w3.org/2000/svg"><path fill-rule="evenodd" clip-rule="evenodd" d="M14.7299 14c-3.3323 0-6.0338-2.6117-6.0338-5.8333 0-3.2217 2.7015-5.8334 6.0338-5.8334 3.3324 0 6.0338 2.6117 6.0338 5.8334 0 3.2216-2.7014 5.8333-6.0338 5.8333zm10.8608 10.5v-2.3333c0-3.2217-2.7014-5.8334-6.0337-5.8334H9.903c-3.3325 0-6.0339 2.6117-6.0339 5.8334V24.5c0 .6443.5403 1.1667 1.2068 1.1667.6665 0 1.2068-.5224 1.2068-1.1667v-2.3333c0-1.933 1.6208-3.5 3.6202-3.5h9.6541c1.9994 0 3.6202 1.567 3.6202 3.5V24.5c0 .6443.5403 1.1667 1.2068 1.1667.6664 0 1.2067-.5224 1.2067-1.1667zM18.3502 8.1667c0 1.933-1.6208 3.5-3.6202 3.5-1.9995 0-3.6203-1.567-3.6203-3.5s1.6208-3.5 3.6203-3.5c1.9994 0 3.6202 1.567 3.6202 3.5z" fill="#4A4A4A"/><mask id="a" maskUnits="userSpaceOnUse" x="3" y="2" width="23" height="24"><path fill-rule="evenodd" clip-rule="evenodd" d="M14.7299 14c-3.3323 0-6.0338-2.6117-6.0338-5.8333 0-3.2217 2.7015-5.8334 6.0338-5.8334 3.3324 0 6.0338 2.6117 6.0338 5.8334 0 3.2216-2.7014 5.8333-6.0338 5.8333zm10.8608 10.5v-2.3333c0-3.2217-2.7014-5.8334-6.0337-5.8334H9.903c-3.3325 0-6.0339 2.6117-6.0339 5.8334V24.5c0 .6443.5403 1.1667 1.2068 1.1667.6665 0 1.2068-.5224 1.2068-1.1667v-2.3333c0-1.933 1.6208-3.5 3.6202-3.5h9.6541c1.9994 0 3.6202 1.567 3.6202 3.5V24.5c0 .6443.5403 1.1667 1.2068 1.1667.6664 0 1.2067-.5224 1.2067-1.1667zM18.3502 8.1667c0 1.933-1.6208 3.5-3.6202 3.5-1.9995 0-3.6203-1.567-3.6203-3.5s1.6208-3.5 3.6203-3.5c1.9994 0 3.6202 1.567 3.6202 3.5z" fill="#fff"/></mask><g mask="url(#a)"><path fill="#00893D" d="M.249 0h28.9621v28H.249z"/></g></svg>